<svg xmlns="http://www.w3.org/2000/svg" viewBox="0 0 387.78 349.45"><defs><style>.cls-1{fill:#29a9e0;}.cls-2{fill:#662d8f;}</style></defs><title>Asset 3</title><g id="Layer_2" data-name="Layer 2"><g id="W2"><path class="cls-1" d="M234.89,113.8a110.34,110.34,0,0,1-7.4,39.83A118.6,118.6,0,0,0,162,123.76a115.72,115.72,0,0,1,60.09-61.58A110.4,110.4,0,0,1,234.89,113.8Z"/><path class="cls-1" d="M166.64,217.15a120.47,120.47,0,0,1-129.5-20.33c16.66-43.21,59.64-74,110.05-74a122.42,122.42,0,0,1,14.86.91,110.93,110.93,0,0,0,4.59,93.39Z"/><path class="cls-1" d="M162,123.76a110.92,110.92,0,0,0,4.59,93.39,120.46,120.46,0,0,1-129.5-20.33A111.75,111.75,0,0,1,0,113.8C0,50.95,52.58,0,117.44,0c45.69,0,85.28,25.27,104.7,62.18A115.7,115.7,0,0,0,162,123.76Z"/><path class="cls-2" d="M387.78,164.53c0,62.85-52.58,113.8-117.45,113.8a121.19,121.19,0,0,1-14.85-.91c-39.3-4.79-72.55-28.43-89.84-61.27A110.92,110.92,0,0,1,161,122.76a118.58,118.58,0,0,1,65.44,29.87,110.88,110.88,0,0,0-5.35-91.45,119.8,119.8,0,0,1,49.19-10.45C335.2,50.73,387.78,101.68,387.78,164.53Z"/><path class="cls-1" d="M234.89,113.8a110.21,110.21,0,0,1-7.4,39.83A118.58,118.58,0,0,0,162,123.76a115.7,115.7,0,0,1,60.09-61.58A110.39,110.39,0,0,1,234.89,113.8Z"/><path d="M263.64,235.65a110.56,110.56,0,0,1-8.16,41.77c-17.19,42.19-59.65,72-109.29,72-64.87,0-117.45-50.95-117.45-113.8a110.29,110.29,0,0,1,7.4-39.83,120.46,120.46,0,0,0,129.5,20.33A110.92,110.92,0,0,1,161,122.76a118.58,118.58,0,0,1,65.44,29.87A111.78,111.78,0,0,1,263.64,235.65Z"/></g></g></svg>