<svg xmlns="http://www.w3.org/2000/svg" viewBox="0 0 138 124.39"><defs><style>.cls-1{fill:#29a9e0;}.cls-2{fill:#662d8f;}</style></defs><title>skillsetsCircle</title><g id="Layer_2" data-name="Layer 2"><g id="Layer_5" data-name="Layer 5"><path class="cls-1" d="M83.38,40.39a39.17,39.17,0,0,1-2.63,14.14,42.1,42.1,0,0,0-23.23-10.6A41.07,41.07,0,0,1,78.85,22.07,39.19,39.19,0,0,1,83.38,40.39Z"/><path class="cls-1" d="M59.15,77.08a42.76,42.76,0,0,1-46-7.22A41.67,41.67,0,0,1,52.25,43.61a43.45,43.45,0,0,1,5.27.32,39.37,39.37,0,0,0,1.63,33.15Z"/><path class="cls-1" d="M78.85,22.07A41.07,41.07,0,0,0,57.52,43.93a43.45,43.45,0,0,0-5.27-.32A41.67,41.67,0,0,0,13.18,69.86,39.68,39.68,0,0,1,0,40.39C0,18.09,18.66,0,41.69,0A41.85,41.85,0,0,1,78.85,22.07Z"/><path class="cls-2" d="M138,58.75c0,22.31-18.66,40.39-41.69,40.39A43.45,43.45,0,0,1,91,98.83,41.7,41.7,0,0,1,59.15,77.08a39.37,39.37,0,0,1-1.63-33.15,42.1,42.1,0,0,1,23.23,10.6,39.37,39.37,0,0,0-1.9-32.46,42.58,42.58,0,0,1,17.46-3.71C119.34,18.36,138,36.45,138,58.75Z"/><path d="M93.93,84A39.24,39.24,0,0,1,91,98.83a41.7,41.7,0,0,1-38.79,25.57c-23,0-41.69-18.09-41.69-40.39a39.17,39.17,0,0,1,2.63-14.14,42.76,42.76,0,0,0,46,7.22,39.37,39.37,0,0,1-1.63-33.15,42.1,42.1,0,0,1,23.23,10.6A39.68,39.68,0,0,1,93.93,84Z"/></g></g></svg>